<svg width="121" height="25" viewBox="0 0 121 25" fill="none" xmlns="http://www.w3.org/2000/svg">
<path d="M0.078125 17.9009V4.16895H8.69474V6.82752H2.52306V10.2575H7.29424V12.5126H2.52306V17.9009H0.078125Z" fill="black"/>
<path d="M11.5465 6.97677C11.0955 6.97677 10.7395 6.84622 10.4546 6.57324C10.1698 6.30026 10.0273 5.96794 10.0273 5.56441C10.0273 5.16088 10.1698 4.82856 10.4546 4.56745C10.7395 4.30634 11.1074 4.17578 11.5465 4.17578C11.9857 4.17578 12.3536 4.30634 12.6384 4.56745C12.9233 4.82856 13.0657 5.16088 13.0657 5.56441C13.0657 5.96794 12.9233 6.31213 12.6384 6.57324C12.3536 6.84622 11.9975 6.97677 11.5465 6.97677ZM10.3241 17.8959V8.44848H12.769V17.9078H10.3241V17.8959Z" fill="black"/>
<path d="M20.0276 18.1333C19.3155 18.1333 18.6983 18.0027 18.1642 17.7297C17.6302 17.4686 17.2029 17.0888 16.8706 16.6022L16.6095 17.8959H14.4375V4.17578H16.8824V9.80151C17.191 9.38611 17.5946 9.01818 18.093 8.69773C18.5915 8.37727 19.2443 8.22298 20.0514 8.22298C20.9415 8.22298 21.7367 8.43662 22.4369 8.87575C23.1372 9.30302 23.6832 9.89646 24.0986 10.6442C24.5021 11.3919 24.7039 12.2464 24.7039 13.1959C24.7039 14.1454 24.5021 15 24.0986 15.7358C23.695 16.4835 23.1372 17.0651 22.4369 17.4924C21.713 17.9196 20.9178 18.1333 20.0276 18.1333ZM19.5054 15.9969C20.2769 15.9969 20.9178 15.7358 21.4281 15.2136C21.9385 14.6914 22.1877 14.0149 22.1877 13.1959C22.1877 12.3651 21.9385 11.6886 21.4281 11.1545C20.9178 10.6204 20.2769 10.3593 19.5054 10.3593C18.7221 10.3593 18.0693 10.6204 17.5708 11.1545C17.0723 11.6767 16.8231 12.3533 16.8231 13.1841C16.8231 14.0149 17.0723 14.6914 17.5708 15.2136C18.0812 15.7239 18.7221 15.9969 19.5054 15.9969Z" fill="black"/>
<path d="M30.9447 18.133C29.9952 18.133 29.1407 17.9312 28.4048 17.5277C27.669 17.1241 27.0874 16.5544 26.672 15.8067C26.2566 15.0708 26.043 14.2163 26.043 13.255C26.043 12.2817 26.2447 11.4034 26.6601 10.6439C27.0755 9.88426 27.6452 9.29083 28.3811 8.86356C29.1169 8.43629 29.9715 8.22266 30.9684 8.22266C31.8942 8.22266 32.7131 8.42442 33.4252 8.82796C34.1374 9.23149 34.6952 9.78931 35.0987 10.5014C35.5023 11.2017 35.704 11.9969 35.704 12.8514C35.704 12.9938 35.704 13.1363 35.6922 13.2906C35.6803 13.4448 35.6803 13.5991 35.6684 13.7653H28.476C28.5235 14.5012 28.7846 15.0827 29.2475 15.4981C29.7104 15.9135 30.2682 16.1272 30.9328 16.1272C31.4313 16.1272 31.8467 16.0203 32.179 15.7948C32.5114 15.5693 32.7725 15.2845 32.9268 14.9284H35.4073C35.2293 15.5219 34.9326 16.0678 34.5172 16.5544C34.1018 17.041 33.5914 17.4327 32.9861 17.7057C32.3808 17.9905 31.7043 18.133 30.9447 18.133ZM30.9566 10.1928C30.3631 10.1928 29.8291 10.359 29.3781 10.7032C28.9152 11.0355 28.6303 11.5459 28.4998 12.2342H33.2116C33.176 11.6171 32.9505 11.1186 32.5232 10.7507C32.1078 10.3827 31.5856 10.1928 30.9566 10.1928Z" fill="black"/>
<path d="M37.0234 17.8928V8.44538H39.1954L39.4209 10.2138C39.7651 9.60851 40.228 9.12189 40.8214 8.75396C41.4148 8.38604 42.1032 8.20801 42.9103 8.20801V10.7835H42.2219C41.6878 10.7835 41.2131 10.8666 40.7977 11.0327C40.3823 11.1989 40.0499 11.4837 39.8126 11.8873C39.5752 12.2908 39.4565 12.8605 39.4565 13.5845V17.8928H37.0234Z" fill="black"/>
<path d="M44.2891 22.1683V8.44816H46.461L46.7221 9.80118C47.0307 9.38578 47.4342 9.01785 47.9327 8.6974C48.4312 8.37695 49.084 8.22266 49.8911 8.22266C50.7812 8.22266 51.5764 8.43629 52.2766 8.87543C52.9769 9.3027 53.5228 9.89613 53.9382 10.6439C54.3418 11.3916 54.5435 12.2461 54.5435 13.1956C54.5435 14.1451 54.3418 14.9996 53.9382 15.7355C53.5347 16.4832 52.9769 17.0648 52.2766 17.492C51.5764 17.9193 50.7812 18.133 49.8911 18.133C49.1789 18.133 48.5618 18.0024 48.0277 17.7294C47.4936 17.4683 47.0663 17.0885 46.734 16.6019V22.1683H44.2891ZM49.3807 15.9966C50.1522 15.9966 50.7931 15.7355 51.3034 15.2133C51.8138 14.6911 52.063 14.0145 52.063 13.1956C52.063 12.3648 51.8138 11.6883 51.3034 11.1542C50.7931 10.6201 50.1522 10.359 49.3807 10.359C48.5974 10.359 47.9446 10.6201 47.4461 11.1542C46.9476 11.6764 46.6984 12.3529 46.6984 13.1837C46.6984 14.0145 46.9476 14.6911 47.4461 15.2133C47.9446 15.7236 48.5974 15.9966 49.3807 15.9966Z" fill="black"/>
<path d="M55.8711 17.8959V4.17578H58.316V17.9078H55.8711V17.8959Z" fill="black"/>
<path d="M62.9979 18.133C62.179 18.133 61.5144 18.0024 60.9921 17.7413C60.4699 17.4802 60.0783 17.136 59.829 16.6968C59.5798 16.2696 59.4492 15.783 59.4492 15.2726C59.4492 14.3943 59.7934 13.6822 60.4818 13.1363C61.1702 12.5903 62.2027 12.3173 63.5676 12.3173H65.9651V12.0918C65.9651 11.4391 65.7752 10.9643 65.4073 10.6676C65.0393 10.359 64.5765 10.2047 64.0305 10.2047C63.532 10.2047 63.1048 10.3234 62.7368 10.5608C62.3689 10.7981 62.1434 11.1423 62.0484 11.6052H59.6629C59.7222 10.9168 59.9596 10.3234 60.3631 9.81305C60.7666 9.3027 61.277 8.91104 61.9179 8.63806C62.5588 8.36508 63.259 8.22266 64.0542 8.22266C65.4073 8.22266 66.4636 8.55498 67.235 9.23149C68.0065 9.908 68.3982 10.8575 68.3982 12.0918V17.9074H66.3211L66.0956 16.3764C65.8108 16.8867 65.431 17.3021 64.9206 17.6345C64.434 17.9668 63.7931 18.133 62.9979 18.133ZM63.5558 16.2221C64.256 16.2221 64.802 15.9966 65.1818 15.5337C65.5734 15.0708 65.8108 14.513 65.9176 13.8365H63.8406C63.1878 13.8365 62.725 13.9552 62.452 14.1926C62.1671 14.4299 62.0366 14.7148 62.0366 15.059C62.0366 15.4269 62.179 15.7118 62.452 15.9135C62.725 16.1153 63.0929 16.2221 63.5558 16.2221Z" fill="black"/>
<path d="M69.7812 17.8956V8.44816H71.9413L72.1312 10.0504C72.428 9.4926 72.8434 9.04159 73.4012 8.72114C73.959 8.38882 74.5999 8.22266 75.3595 8.22266C76.5345 8.22266 77.4365 8.59058 78.0893 9.32644C78.7421 10.0623 79.0625 11.1423 79.0625 12.5666V17.9074H76.6176V12.8039C76.6176 11.985 76.4514 11.3678 76.1191 10.9406C75.7868 10.5133 75.2764 10.2878 74.5762 10.2878C73.8878 10.2878 73.33 10.5252 72.8908 11.0118C72.4517 11.4984 72.2381 12.163 72.2381 13.0294V17.9074H69.7812V17.8956Z" fill="black"/>
<path d="M85.2767 18.133C84.3273 18.133 83.4727 17.9312 82.7369 17.5277C82.001 17.1241 81.4194 16.5544 81.004 15.8067C80.5886 15.0708 80.375 14.2163 80.375 13.255C80.375 12.2817 80.5768 11.4034 80.9922 10.6439C81.4076 9.88426 81.9773 9.29083 82.7131 8.86356C83.449 8.43629 84.3035 8.22266 85.3005 8.22266C86.2262 8.22266 87.0452 8.42442 87.7573 8.82796C88.4694 9.23149 89.0272 9.78931 89.4308 10.5014C89.8343 11.2017 90.0361 11.9969 90.0361 12.8514C90.0361 12.9938 90.0361 13.1363 90.0242 13.2906C90.0123 13.4448 90.0123 13.5991 90.0005 13.7653H82.7962C82.8437 14.5012 83.1048 15.0827 83.5677 15.4981C84.0305 15.9135 84.5884 16.1272 85.253 16.1272C85.7515 16.1272 86.1669 16.0203 86.4992 15.7948C86.8315 15.5693 87.0926 15.2845 87.2469 14.9284H89.7275C89.5494 15.5219 89.2527 16.0678 88.8373 16.5544C88.4219 17.041 87.9116 17.4327 87.3063 17.7057C86.7247 17.9905 86.0363 18.133 85.2767 18.133ZM85.3005 10.1928C84.707 10.1928 84.173 10.359 83.722 10.7032C83.2591 11.0355 82.9742 11.5459 82.8437 12.2342H87.5436C87.508 11.6171 87.2825 11.1186 86.8553 10.7507C86.4399 10.3827 85.9176 10.1928 85.3005 10.1928Z" fill="black"/>
<path d="M108.426 25C113.903 25 116.948 25 118.937 23.0112C120.926 21.0224 120.926 17.9774 120.926 12.5C120.926 7.02257 120.926 3.97759 118.937 1.98879C116.948 -3.84546e-07 113.903 0 108.426 0C102.948 0 99.9034 -3.84546e-07 97.9146 1.98879C95.9258 3.97759 95.9258 7.02257 95.9258 12.5C95.9258 17.9774 95.9258 21.0224 97.9146 23.0112C99.9034 25 102.948 25 108.426 25Z" fill="url(#paint0_linear)"/>
<path d="M101.906 10.6309V12.4956L109.126 12.5104L109.552 10.6457L101.906 10.6309Z" fill="white"/>
<path d="M101.906 6.89355V8.75828L109.978 8.77308L110.05 8.44749C110.23 7.66312 109.653 6.90835 108.866 6.90835L101.906 6.89355Z" fill="white"/>
<path d="M108.691 14.3745L109.117 12.5098L113.687 12.5172L113.016 14.3819L108.691 14.3745Z" fill="white"/>
<path d="M109.543 10.6447L109.976 8.78001L116.488 8.75781L115.723 10.6151L109.543 10.6447Z" fill="white"/>
<path d="M101.906 14.3594V16.2241L108.267 16.2389L108.693 14.3742L101.906 14.3594Z" fill="white"/>
<path d="M110.982 18.1114H109.661C108.708 18.1114 108.015 17.179 108.261 16.2393H111.712L110.982 18.1114Z" fill="white"/>
<defs>
<linearGradient id="paint0_linear" x1="98.4258" y1="1.59091" x2="118.653" y2="23.1818" gradientUnits="userSpaceOnUse">
<stop offset="0.114583" stop-color="#292929"/>
<stop offset="1" stop-color="#1A1A1A"/>
</linearGradient>
</defs>
</svg>
